<svg id="Layer_1" enable-background="new 0 0 512 512" height="512" viewBox="0 0 512 512" width="512" xmlns="http://www.w3.org/2000/svg"><g><path d="m466.653 392.145c21.809-36.63 34.349-79.421 34.349-125.147 0-135.311-109.691-245.003-245.002-245.003s-245.002 109.691-245.002 245.003c0 45.726 12.541 88.517 34.349 125.147z" fill="#73c3f9"/><path d="m436.645 432.481c11.577-12.633 21.85-26.482 30.599-41.336v-347.608c0-24.045-19.492-43.537-43.537-43.537h-335.414c-24.045 0-43.537 19.492-43.537 43.537v347.608c8.749 14.854 19.021 28.703 30.599 41.336z" fill="#167cc1"/><path d="m168.353 0h-80.06c-24.045 0-43.537 19.492-43.537 43.537v347.608c8.749 14.854 19.021 28.703 30.599 41.336h90.65c3.651-9.526 7.933-15.139 7.933-15.139l-11.638-111.802-2.111-148.007c-3.029-3.029-2.641-14.025-2.641-14.025s0-46.25 0-58 10.804-16.163 10.804-16.163c-4.499-4.499 0-9.035 0-9.035v-21.609c-4.55-4.55 0-9.035 0-9.035-18.918-14.258.001-29.666.001-29.666z" fill="#0e62a8"/><path d="m74.422 431.481c44.827 49.455 109.573 80.519 181.578 80.519s136.752-31.064 181.578-80.519c0-106.291 0-259.481 0-328.966-11.94-13.173-25.292-25.043-39.82-35.367h-283.516c-14.528 10.324-27.88 22.193-39.82 35.367z" fill="#e9efff"/><path d="m74.422 102.515v328.966c26.168 28.87 59.132 51.456 96.359 65.271-23.866-44.014 3.157-79.41 3.157-79.41l-11.638-111.802-2.111-148.007c-3.029-3.029-2.641-14.025-2.641-14.025s0-46.25 0-58 10.804-16.163 10.804-16.163c-.739-.739-1.216-1.477-1.529-2.197h-52.581c-14.528 10.324-27.879 22.193-39.82 35.367z" fill="#d3dcfb"/><g><path d="m196.372 237.706c106.107 129.243 158.618 5.034 222.289 68.705 6.505 6.505 12.803 12.19 18.917 17.113v-256.376h-363.156v127.396c23.268-7.332 74.942-14.095 121.95 43.162z" fill="#ffdd40"/></g><path d="m74.422 194.544c17.47-5.505 50.955-10.688 86.456 11.308l-.689-48.319c-3.029-3.029-2.641-14.025-2.641-14.025s0-46.25 0-58 10.804-16.163 10.804-16.163c-.739-.739-1.216-1.477-1.529-2.197h-92.401z" fill="#ffb332"/><path d="m423.708 29.667h-335.414c-7.629 0-13.871 6.242-13.871 13.871v25.807h363.156v-25.808c-.001-7.629-6.243-13.87-13.871-13.87z" fill="#2a428c"/><path d="m168.353 60.31v-21.609c-4.55-4.55 0-9.035 0-9.035h-80.059c-7.629 0-13.871 6.242-13.871 13.871v25.807h93.93c-4.499-4.498 0-9.034 0-9.034z" fill="#1c2e7a"/><g><path d="m119.412 49.506c0 5.967-4.837 10.805-10.804 10.805s-10.804-4.837-10.804-10.805c0-5.967 4.837-10.804 10.804-10.804 5.967-.001 10.804 4.837 10.804 10.804z" fill="#ff4155"/></g><g><path d="m149.285 49.506c0 5.967-4.837 10.805-10.805 10.805-5.967 0-10.804-4.837-10.804-10.805 0-5.967 4.837-10.804 10.804-10.804 5.968-.001 10.805 4.837 10.805 10.804z" fill="#ffdd40"/></g><g><path d="m179.157 49.506c0 5.967-4.837 10.805-10.804 10.805s-10.805-4.837-10.805-10.805c0-5.967 4.837-10.804 10.805-10.804 5.967-.001 10.804 4.837 10.804 10.804z" fill="#38c674"/></g><g><path d="m323.049 57.747h-108.411c-4.551 0-8.241-3.689-8.241-8.241s3.689-8.241 8.241-8.241h108.411c4.551 0 8.241 3.689 8.241 8.241s-3.69 8.241-8.241 8.241z" fill="#3c58a0"/></g><g><path d="m411.115 57.747h-9.394c-4.551 0-8.241-3.689-8.241-8.241s3.69-8.241 8.241-8.241h9.394c4.551 0 8.241 3.689 8.241 8.241-.001 4.552-3.69 8.241-8.241 8.241z" fill="#3c58a0"/></g><g><path d="m378.454 57.747h-9.394c-4.551 0-8.241-3.689-8.241-8.241s3.69-8.241 8.241-8.241h9.394c4.551 0 8.241 3.689 8.241 8.241s-3.69 8.241-8.241 8.241z" fill="#3c58a0"/></g><path d="m199.511 157.533h-78.426c-9.178 0-16.688 7.509-16.688 16.688v78.426c0 9.178 7.509 16.688 16.688 16.688h78.426c9.178 0 16.688-7.509 16.688-16.688v-78.426c0-9.179-7.51-16.688-16.688-16.688z" fill="#ff4155"/><path d="m199.511 305.54h-78.426c-9.178 0-16.688 7.51-16.688 16.688v78.426c0 9.178 7.509 16.688 16.688 16.688h78.426c9.178 0 16.688-7.51 16.688-16.688v-78.426c0-9.179-7.51-16.688-16.688-16.688z" fill="#49d88b"/><g><path d="m395.589 174.992h-139.589c-4.551 0-8.241-3.689-8.241-8.241s3.69-8.241 8.241-8.241h139.589c4.551 0 8.241 3.689 8.241 8.241s-3.69 8.241-8.241 8.241z" fill="#ffb332"/></g><g><path d="m395.589 205.931h-139.589c-4.551 0-8.241-3.689-8.241-8.241s3.69-8.241 8.241-8.241h139.589c4.551 0 8.241 3.689 8.241 8.241s-3.69 8.241-8.241 8.241z" fill="#ffb332"/></g><g><path d="m395.589 236.869h-139.589c-4.551 0-8.241-3.689-8.241-8.241s3.69-8.241 8.241-8.241h139.589c4.551 0 8.241 3.689 8.241 8.241s-3.69 8.241-8.241 8.241z" fill="#ffb332"/></g><g><path d="m325.794 267.808h-69.794c-4.551 0-8.241-3.689-8.241-8.241s3.69-8.241 8.241-8.241h69.794c4.551 0 8.241 3.689 8.241 8.241s-3.689 8.241-8.241 8.241z" fill="#ffb332"/></g><g><path d="m395.589 323.273h-139.589c-4.551 0-8.241-3.689-8.241-8.241s3.69-8.241 8.241-8.241h139.589c4.551 0 8.241 3.689 8.241 8.241s-3.69 8.241-8.241 8.241z" fill="#ffb332"/></g><g><path d="m395.589 354.212h-139.589c-4.551 0-8.241-3.689-8.241-8.241s3.69-8.241 8.241-8.241h139.589c4.551 0 8.241 3.689 8.241 8.241s-3.69 8.241-8.241 8.241z" fill="#ffb332"/></g><g><path d="m395.589 385.151h-139.589c-4.551 0-8.241-3.689-8.241-8.241s3.69-8.241 8.241-8.241h139.589c4.551 0 8.241 3.689 8.241 8.241s-3.69 8.241-8.241 8.241z" fill="#ffb332"/></g><g><path d="m325.794 416.09h-69.794c-4.551 0-8.241-3.689-8.241-8.241s3.69-8.241 8.241-8.241h69.794c4.551 0 8.241 3.689 8.241 8.241s-3.689 8.241-8.241 8.241z" fill="#ffb332"/></g><path d="m393.671 99.903h-55.869v26.678h55.869c7.367 0 13.339-5.972 13.339-13.339-.001-7.367-5.973-13.339-13.339-13.339z" fill="#e9efff"/><path d="m338.9 99.903h-18.805c-7.367 0-13.339 5.972-13.339 13.339s5.972 13.339 13.339 13.339h18.805z" fill="#2a428c"/><g><path d="m219.874 505.685c-3.219-3.218-3.218-8.436 0-11.654l16.314-16.313-16.314-16.314c-3.219-3.219-3.219-8.436 0-11.655 3.218-3.217 8.436-3.217 11.654 0l22.142 22.142c1.546 1.546 2.414 3.642 2.414 5.828s-.868 4.281-2.414 5.827l-22.142 22.14c-3.219 3.218-8.436 3.219-11.654-.001z" fill="#42c3fc"/></g><g><path d="m258.331 505.685c-3.218-3.218-3.218-8.436 0-11.654l16.314-16.313-16.314-16.314c-3.218-3.219-3.218-8.436 0-11.655 3.218-3.217 8.436-3.217 11.654 0l22.142 22.142c1.546 1.546 2.414 3.642 2.414 5.828s-.868 4.281-2.414 5.827l-22.142 22.14c-3.219 3.218-8.436 3.219-11.654-.001z" fill="#9bd8f9"/></g><path d="m160.189 157.533h-39.105c-9.178 0-16.688 7.509-16.688 16.688v78.426c0 9.178 7.509 16.688 16.688 16.688h55.187c-14.333-6.924-6.332-20.86-6.332-20.86s14.332-12.466 14.332-33.374c0-20.907-24.082-38.046-24.082-38.046-10.309-10.309 0-19.522 0-19.522z" fill="#e80054"/><g><g><path d="m182.717 247.172-18.004-18.003c-3.218-3.219-3.218-8.436 0-11.654 3.218-3.219 8.436-3.218 11.654-.001l18.003 18.003c3.218 3.219 3.218 8.436 0 11.654-3.216 3.218-8.433 3.219-11.653.001z" fill="#e9efff"/></g><g><path d="m160.189 249.813c-20.059 0-36.378-16.32-36.378-36.378 0-20.06 16.319-36.379 36.378-36.379s36.379 16.319 36.379 36.379c0 20.058-16.32 36.378-36.379 36.378zm0-56.277c-10.971 0-19.897 8.926-19.897 19.898 0 10.971 8.926 19.897 19.897 19.897s19.897-8.925 19.897-19.897c0-10.971-8.925-19.898-19.897-19.898z" fill="#e9efff"/></g></g><path d="m162.3 305.54h-41.215c-9.178 0-16.688 7.509-16.688 16.688v78.426c0 9.178 7.509 16.688 16.688 16.688h52.854c-7.5-12.583 5.69-20.053 5.69-20.053l-19.236-72.226c-10.289-10.288 1.907-19.523 1.907-19.523z" fill="#38c674"/><g><g><path d="m174.803 392.488-14.439-38.26-14.581 38.283c-1.62 4.253-6.38 6.39-10.634 4.768-4.253-1.62-6.388-6.381-4.768-10.633l21.131-55.483c.024-.064.049-.128.075-.19 1.469-3.587 4.923-5.907 8.799-5.91h.006c3.876 0 7.329 2.312 8.803 5.894.031.075.061.151.09.226l20.939 55.485c1.607 4.259-.542 9.013-4.801 10.62-4.24 1.601-9.006-.525-10.62-4.8z" fill="#e9efff"/></g><g><path d="m176.029 384.001h-31.357c-4.551 0-8.241-3.689-8.241-8.241s3.689-8.241 8.241-8.241h31.357c4.551 0 8.241 3.689 8.241 8.241s-3.69 8.241-8.241 8.241z" fill="#e9efff"/></g></g></g></svg>